<?xml version="1.0" encoding="UTF-8" standalone="no"?>
<!-- Created with Inkscape (http://www.inkscape.org/) -->

<svg
   xmlns:dc="http://purl.org/dc/elements/1.1/"
   xmlns:cc="http://creativecommons.org/ns#"
   xmlns:rdf="http://www.w3.org/1999/02/22-rdf-syntax-ns#"
   xmlns:svg="http://www.w3.org/2000/svg"
   xmlns="http://www.w3.org/2000/svg"
   xmlns:sodipodi="http://sodipodi.sourceforge.net/DTD/sodipodi-0.dtd"
   xmlns:inkscape="http://www.inkscape.org/namespaces/inkscape"
   width="291.67575mm"
   height="252.19669mm"
   viewBox="0 0 1033.4968 893.6103"
   id="svg6042"
   version="1.1"
   inkscape:version="0.91 r13725"
   sodipodi:docname="outline.svg">
  <defs
     id="defs6044" />
  <sodipodi:namedview
     id="base"
     pagecolor="#ffffff"
     bordercolor="#666666"
     borderopacity="1.0"
     inkscape:pageopacity="0.0"
     inkscape:pageshadow="2"
     inkscape:zoom="0.7"
     inkscape:cx="-269.65327"
     inkscape:cy="281.83412"
     inkscape:document-units="px"
     inkscape:current-layer="layer2"
     showgrid="false"
     inkscape:snap-bbox="true"
     inkscape:snap-bbox-edge-midpoints="true"
     inkscape:snap-bbox-midpoints="false"
     inkscape:bbox-paths="true"
     inkscape:window-width="2556"
     inkscape:window-height="1376"
     inkscape:window-x="1080"
     inkscape:window-y="36"
     inkscape:window-maximized="0"
     showguides="false"
     inkscape:guide-bbox="true"
     inkscape:snap-global="true"
     fit-margin-top="0"
     fit-margin-left="0"
     fit-margin-right="0"
     fit-margin-bottom="0">
    <sodipodi:guide
       position="949.85314,1068.6054"
       orientation="1,0"
       id="guide6843"
       inkscape:label=""
       inkscape:color="rgb(0,0,255)" />
    <sodipodi:guide
       position="183.15464,890.06701"
       orientation="0,214.64284"
       id="guide6863" />
    <sodipodi:guide
       position="427.07558,825.59321"
       orientation="182.83186,0"
       id="guide5515" />
    <sodipodi:guide
       position="259.11674,792.85276"
       orientation="40.45111,0"
       id="guide5525" />
    <sodipodi:guide
       position="349.52887,532.21434"
       orientation="0,-43.95586"
       id="guide5535" />
    <sodipodi:guide
       position="815.70613,78.858995"
       orientation="0,1"
       id="guide5543"
       inkscape:label=""
       inkscape:color="rgb(0,0,255)" />
    <sodipodi:guide
       position="575.42325,554.48067"
       orientation="16.87268,0"
       id="guide5549" />
    <sodipodi:guide
       position="684.9404,517.20986"
       orientation="1,0"
       id="guide5651" />
    <sodipodi:guide
       position="620.65469,641.85272"
       orientation="0,1"
       id="guide5653" />
    <sodipodi:guide
       position="668.47628,522.36536"
       orientation="0,1"
       id="guide5655" />
    <sodipodi:guide
       position="18.190521,541.81079"
       orientation="1,0"
       id="guide5657" />
    <sodipodi:guide
       position="106.57888,537.26511"
       orientation="1,0"
       id="guide5659" />
    <sodipodi:guide
       position="56.576321,596.86411"
       orientation="0,1"
       id="guide5661" />
    <sodipodi:guide
       position="52.535711,481.20164"
       orientation="0,1"
       id="guide5663" />
    <sodipodi:guide
       position="3.5433075,606.46056"
       orientation="1,0"
       id="guide5665" />
  </sodipodi:namedview>
  <metadata
     id="metadata6047">
    <rdf:RDF>
      <cc:Work
         rdf:about="">
        <dc:format>image/svg+xml</dc:format>
        <dc:type
           rdf:resource="http://purl.org/dc/dcmitype/StillImage" />
        <dc:title></dc:title>
      </cc:Work>
    </rdf:RDF>
  </metadata>
  <g
     inkscape:label="Layer 1"
     inkscape:groupmode="layer"
     id="layer1"
     style="display:none;opacity:0.347"
     transform="translate(21.726053,-178.81889)">
    <path
       style="display:inline;overflow:visible;fill:none;stroke:#000000;stroke-width:1.24999988;stroke-linecap:square;stroke-linejoin:miter;stroke-miterlimit:100;stroke-dasharray:none;stroke-opacity:1"
       d="m 24.402902,591.76465 43.955876,0 0,4.21858 -43.955876,0 z"
       id="rect9"
       inkscape:connector-curvature="0" />
    <path
       style="display:inline;overflow:visible;fill:#ffffff;stroke:#000000;stroke-width:1.24999988;stroke-linecap:square;stroke-linejoin:miter;stroke-miterlimit:100;stroke-dasharray:none;stroke-opacity:1"
       d="m 233.23521,473.65758 3.66335,0 0,44.29096 -3.66335,0 z"
       id="rect13"
       inkscape:connector-curvature="0" />
    <path
       style="display:inline;overflow:visible;fill:none;stroke:#000000;stroke-width:1.24999988;stroke-linecap:square;stroke-linejoin:miter;stroke-miterlimit:100;stroke-dasharray:none;stroke-opacity:1"
       d="m 572.01387,549.58377 36.63059,0 0,4.21695 -36.63059,0 z"
       id="rect19"
       inkscape:connector-curvature="0" />
    <path
       style="display:inline;overflow:visible;fill:#ffffff;stroke:#000000;stroke-width:1.24999988;stroke-linecap:square;stroke-linejoin:miter;stroke-miterlimit:100;stroke-dasharray:none;stroke-opacity:1"
       d="m 202.05591,962.96016 36.63061,0 0,4.21694 -36.63061,0 z"
       id="rect23"
       inkscape:connector-curvature="0" />
    <path
       style="display:inline;overflow:visible;fill:#ffffff;stroke:#000000;stroke-width:1.24999988;stroke-linecap:square;stroke-linejoin:miter;stroke-miterlimit:100;stroke-dasharray:none;stroke-opacity:1"
       d="m 286.30289,962.96016 36.63059,0 0,4.21694 -36.63059,0 z"
       id="rect25"
       inkscape:connector-curvature="0" />
    <path
       style="display:inline;overflow:visible;fill:#ffffff;stroke:#000000;stroke-width:1.24999988;stroke-linecap:square;stroke-linejoin:miter;stroke-miterlimit:100;stroke-dasharray:none;stroke-opacity:1"
       d="m 370.55126,962.96016 36.6306,0 0,4.21694 -36.6306,0 z"
       id="rect27"
       inkscape:connector-curvature="0" />
    <path
       style="display:inline;overflow:visible;fill:#ffffff;stroke:#000000;stroke-width:1.24999988;stroke-linecap:square;stroke-linejoin:miter;stroke-miterlimit:100;stroke-dasharray:none;stroke-opacity:1"
       d="m 452.96727,962.96016 36.63061,0 0,4.21694 -36.63061,0 z"
       id="rect29"
       inkscape:connector-curvature="0" />
    <path
       style="display:inline;overflow:visible;fill:#ffffff;stroke:#000000;stroke-width:1.24999988;stroke-linecap:square;stroke-linejoin:miter;stroke-miterlimit:100;stroke-dasharray:none;stroke-opacity:1"
       d="m 537.21708,962.96016 36.62775,0 0,4.21694 -36.62775,0 z"
       id="rect31"
       inkscape:connector-curvature="0" />
    <path
       style="display:inline;overflow:visible;fill:#ffffff;stroke:#000000;stroke-width:1.24999988;stroke-linecap:square;stroke-linejoin:miter;stroke-miterlimit:100;stroke-dasharray:none;stroke-opacity:1"
       d="m 625.12741,962.96016 36.62775,0 0,4.21694 -36.62775,0 z"
       id="rect33"
       inkscape:connector-curvature="0" />
    <path
       style="display:inline;overflow:visible;fill:#ffffff;stroke:#000000;stroke-width:1.24999988;stroke-linecap:square;stroke-linejoin:miter;stroke-miterlimit:100;stroke-dasharray:none;stroke-opacity:1"
       d="m 766.14985,962.96016 36.62776,0 0,4.21694 -36.62776,0 z"
       id="rect35"
       inkscape:connector-curvature="0" />
    <path
       style="display:inline;overflow:visible;fill:#ffffff;stroke:#000000;stroke-width:1.24999988;stroke-linecap:square;stroke-linejoin:miter;stroke-miterlimit:100;stroke-dasharray:none;stroke-opacity:1"
       d="m 899.84836,808.99763 3.66191,0 0,44.29097 -3.66191,0 z"
       id="rect37"
       inkscape:connector-curvature="0" />
    <path
       style="display:inline;overflow:visible;fill:none;stroke:#000000;stroke-width:1.24999988;stroke-linecap:square;stroke-linejoin:miter;stroke-miterlimit:100;stroke-dasharray:none;stroke-opacity:1"
       d="m 899.84836,638.16411 3.66191,0 0,44.28768 -3.66191,0 z"
       id="rect39"
       inkscape:connector-curvature="0" />
    <path
       style="display:inline;overflow:visible;fill:none;stroke:#000000;stroke-width:1.24999988;stroke-linecap:square;stroke-linejoin:miter;stroke-miterlimit:100;stroke-dasharray:none;stroke-opacity:1"
       d="m 9.7509466,591.76465 14.6519554,0 0,4.21858 -14.6519554,0 z"
       id="rect45"
       inkscape:connector-curvature="0" />
    <path
       style="display:inline;overflow:visible;fill:none;stroke:#000000;stroke-width:1.24999988;stroke-linecap:square;stroke-linejoin:miter;stroke-miterlimit:100;stroke-dasharray:none;stroke-opacity:1"
       d="m 68.358778,591.76465 14.65196,0 0,4.21858 -14.65196,0 z"
       id="rect47"
       inkscape:connector-curvature="0" />
    <path
       style="display:inline;overflow:visible;fill:#b3b3b3;stroke:#000000;stroke-width:1.24999988;stroke-linecap:square;stroke-linejoin:miter;stroke-miterlimit:100;stroke-dasharray:none;stroke-opacity:1"
       d="m 68.358778,693.00069 14.65196,0 0,2.10684 -14.65196,0 z"
       id="rect49"
       inkscape:connector-curvature="0" />
    <path
       style="display:inline;overflow:visible;fill:#b3b3b3;stroke:#000000;stroke-width:1.24999988;stroke-linecap:square;stroke-linejoin:miter;stroke-miterlimit:100;stroke-dasharray:none;stroke-opacity:1"
       d="m 11.581911,693.00069 14.651955,0 0,2.10684 -14.651955,0 z"
       id="rect51"
       inkscape:connector-curvature="0" />
    <path
       id="polygon71"
       style="color:#000000;display:inline;overflow:visible;visibility:visible;fill:#cccccc;fill-opacity:1;fill-rule:nonzero;stroke:#000000;stroke-width:1.24999988;stroke-linecap:square;stroke-linejoin:miter;stroke-miterlimit:100;stroke-dasharray:none;stroke-dashoffset:0;stroke-opacity:1;marker:none;enable-background:accumulate"
       d="m 550.03524,570.67502 0,31.63525 -3.66192,0 0,-31.63525 -11.15623,0 0,-6.32704 3.83238,0 0,-25.30819 10.98577,0 0,-4.22022 3.66193,0 0,14.7642 18.31671,0 0,2.11011 -3.66192,0 0,18.98114 z"
       inkscape:connector-curvature="0"
       sodipodi:nodetypes="ccccccccccccccccc" />
    <path
       id="polygon75"
       style="color:#000000;display:inline;overflow:visible;visibility:visible;fill:#cccccc;fill-opacity:1;fill-rule:nonzero;stroke:#000000;stroke-width:1.24999988;stroke-linecap:square;stroke-linejoin:miter;stroke-miterlimit:100;stroke-dasharray:none;stroke-dashoffset:0;stroke-opacity:1;marker:none;enable-background:accumulate"
       d="m 792.26526,724.66323 -60.91225,-0.029 -42.1249,0 0,40.07239 -16.48434,0 0,-37.96228 -93.40319,0 0,4e-5 0,-33.7437 78.75265,0 0,-8.43881 31.13488,0 0,14.76585 92.97819,-0.17512 -0.002,-103.16939 -92.97564,0 0,31.63524 -29.30248,0 0,-56.94343 -47.61922,0 0,-18.98114 -3.66192,0 0,-2.11011 54.94305,0 0,-118.56085 -113.55069,0 0,-10.49268 119.045,4.21859 3.66192,65.78141 3.66619,4.21859 3.66193,-4.21859 3.66191,4.21859 3.66477,-4.21859 1.82954,4.21859 0,94.9057 186.80923,0 0,-44.2877 10.99004,14.76093 5.49431,-12.65246 3.66191,-363.28835 10.99004,0 0,453.97712 -9.15765,0 0,-4.21694 -21.97865,0 0,-37.96392 -82.93045,0 -0.21988,103.2691 z"
       inkscape:connector-curvature="0"
       sodipodi:nodetypes="ccccccccccccccccccccccccccccccccccccccccccccccccc" />
    <path
       style="color:#000000;display:inline;overflow:visible;visibility:visible;fill:#cccccc;fill-opacity:1;fill-rule:nonzero;stroke:#000000;stroke-width:1.24999988;stroke-linecap:square;stroke-linejoin:miter;stroke-miterlimit:100;stroke-dasharray:none;stroke-dashoffset:0;stroke-opacity:1;marker:none;enable-background:accumulate"
       d="m 573.84343,973.50413 0,-12.6541 1.83238,0 0,-23.19971 47.6192,0 0,23.19971 1.8324,0 0,12.6541 -51.28398,0 z"
       id="polygon77"
       inkscape:connector-curvature="0" />
    <path
       style="color:#000000;display:inline;overflow:visible;visibility:visible;fill:#cccccc;fill-opacity:1;fill-rule:nonzero;stroke:#000000;stroke-width:1.24999988;stroke-linecap:square;stroke-linejoin:miter;stroke-miterlimit:100;stroke-dasharray:none;stroke-dashoffset:0;stroke-opacity:1;marker:none;enable-background:accumulate"
       d="m 661.75516,973.50413 0,-12.6541 1.83238,0 0,-23.19971 9.15623,0 0,-37.96228 16.48434,0 0,37.96228 75.08932,0 0,23.19971 1.83238,0 0,12.6541 -104.39465,0 z"
       id="polygon79"
       inkscape:connector-curvature="0" />
    <path
       style="color:#000000;display:inline;overflow:visible;visibility:visible;fill:#cccccc;fill-opacity:1;fill-rule:nonzero;stroke:#000000;stroke-width:1.24999988;stroke-linecap:square;stroke-linejoin:miter;stroke-miterlimit:100;stroke-dasharray:none;stroke-dashoffset:0;stroke-opacity:1;marker:none;enable-background:accumulate"
       d="m 876.03734,855.39707 21.97865,0 0,-2.10847 9.15765,0 0,120.21553 -104.39608,0 0,-12.6541 1.83238,0 0,-23.19971 71.4274,0 0,-82.25325 z"
       id="polygon81"
       inkscape:connector-curvature="0" />
    <path
       style="color:#000000;display:inline;overflow:visible;visibility:visible;fill:#cccccc;fill-opacity:1;fill-rule:nonzero;stroke:#000000;stroke-width:1.24999988;stroke-linecap:square;stroke-linejoin:miter;stroke-miterlimit:100;stroke-dasharray:none;stroke-dashoffset:0;stroke-opacity:1;marker:none;enable-background:accumulate"
       d="m 835.74481,699.32772 0,25.30656 40.29253,0 0,82.25488 21.97865,0 0,2.10847 9.15765,0 0,-126.54587 -9.15765,0 0,2.11011 -21.97865,0 0,14.76585 -40.29253,0 z"
       id="polygon83"
       inkscape:connector-curvature="0" />
    <path
       style="color:#000000;display:inline;overflow:visible;visibility:visible;fill:#cccccc;fill-opacity:1;fill-rule:nonzero;stroke:#000000;stroke-width:1.24999988;stroke-linecap:square;stroke-linejoin:miter;stroke-miterlimit:100;stroke-dasharray:none;stroke-dashoffset:0;stroke-opacity:1;marker:none;enable-background:accumulate"
       d="m 370.55128,973.50413 0,-12.6541 -1.83097,0 0,-23.19971 -43.95586,0 0,23.19971 -1.83097,0 0,12.6541 47.6178,0 z"
       id="polygon85"
       inkscape:connector-curvature="0" />
    <path
       style="color:#000000;display:inline;overflow:visible;visibility:visible;fill:#cccccc;fill-opacity:1;fill-rule:nonzero;stroke:#000000;stroke-width:1.24999988;stroke-linecap:square;stroke-linejoin:miter;stroke-miterlimit:100;stroke-dasharray:none;stroke-dashoffset:0;stroke-opacity:1;marker:none;enable-background:accumulate"
       d="m 537.21709,973.50413 0,-12.6541 -1.83381,0 0,-23.19971 -1.96174,0 -5.16166,0 -7.26699,0 -8.27344,0 -8.18814,0 -7.00685,0 -4.73377,0 -1.36043,0 0,23.19971 -1.83381,0 0,12.6541 47.62064,0 z"
       id="polygon95"
       inkscape:connector-curvature="0" />
    <path
       style="color:#000000;display:inline;overflow:visible;visibility:visible;fill:#cccccc;fill-opacity:1;fill-rule:nonzero;stroke:#000000;stroke-width:1.24999988;stroke-linecap:square;stroke-linejoin:miter;stroke-miterlimit:100;stroke-dasharray:none;stroke-dashoffset:0;stroke-opacity:1;marker:none;enable-background:accumulate"
       d="m 452.96727,973.50413 0,-12.6541 -1.83238,0 0,-23.19971 -42.12205,0 0,23.19971 -1.83238,0 0,12.6541 45.78681,0 z"
       id="polygon97"
       inkscape:connector-curvature="0" />
    <path
       style="color:#000000;display:inline;overflow:visible;visibility:visible;fill:#cccccc;fill-opacity:1;fill-rule:nonzero;stroke:#000000;stroke-width:1.24999988;stroke-linecap:square;stroke-linejoin:miter;stroke-miterlimit:100;stroke-dasharray:none;stroke-dashoffset:0;stroke-opacity:1;marker:none;enable-background:accumulate"
       d="m 237.3826,321.23285 0,57.11931 -6.83159,0 0,-3.53933 -18.75152,0 0,-2.93499 -15.89203,0 0,-15.02922 -12.62926,0 0,-7.48445 12.62926,0 15.89203,0 0,-23.57661 18.75152,-0.21185 0,-4.63326 z"
       id="path3913"
       inkscape:connector-curvature="0" />
    <path
       id="polygon99"
       style="color:#000000;display:inline;overflow:visible;visibility:visible;fill:#cccccc;fill-opacity:1;fill-rule:nonzero;stroke:#000000;stroke-width:1.24999988;stroke-linecap:square;stroke-linejoin:miter;stroke-miterlimit:100;stroke-dasharray:none;stroke-dashoffset:0;stroke-opacity:1;marker:none;enable-background:accumulate"
       d="m 11.598959,973.5119 -29.319543,0 0,-9.91791 -11.184903,0.0408 5.128561,-3.07224 -8.187997,-3.47144 9.013195,-4.13164 -7.042787,-6.08682 12.273931,-2.4e-4 0,-374.6395 2.617021,-7.34284 1.923652,7.01836 3.088014,-4.1721 3.0224906,5.95564 1.746279,-5.77896 2.26232,5.44265 0,16.2772 12.793986,0 0,5.29515 -1.821371,1.04826 0,16.88168 -10.972615,0 0,20.0406 0,20.04058 0,40.0812 14.6597664,0 0,33.71218 -14.6597664,0 0,210.91865 32.9580164,-7.9e-4 0,4.21857 -18.210528,0 z"
       inkscape:connector-curvature="0"
       sodipodi:nodetypes="ccccccccccccccccccccccccccccccccc" />
    <path
       id="polygon101"
       style="color:#000000;display:inline;overflow:visible;visibility:visible;fill:#cccccc;fill-opacity:1;fill-rule:nonzero;stroke:#000000;stroke-width:1.24999988;stroke-linecap:square;stroke-linejoin:miter;stroke-miterlimit:100;stroke-dasharray:none;stroke-dashoffset:0;stroke-opacity:1;marker:none;enable-background:accumulate"
       d="m 81.178348,793.31166 0,144.33868 -12.81957,0 0,4.21857 18.31387,0 0,21.08959 -1.83238,0 0,10.54399 32.967262,0.001 0,5e-4 0,-12.6541 -1.83097,0 0,-23.19971 -31.136292,2e-5 0,-144.33868 0,-1.18506 0,-4.21859 175.822052,0 0,64.87268 3.66334,0 0,-69.09288 -183.147312,0 0,8.43879 z"
       inkscape:connector-curvature="0"
       sodipodi:nodetypes="cccccccccccccccccccccccc" />
    <path
       style="color:#000000;display:inline;overflow:visible;visibility:visible;fill:#cccccc;fill-opacity:1;fill-rule:nonzero;stroke:#000000;stroke-width:1.24999988;stroke-linecap:square;stroke-linejoin:miter;stroke-miterlimit:100;stroke-dasharray:none;stroke-dashoffset:0;stroke-opacity:1;marker:none;enable-background:accumulate"
       d="m 147.74995,469.43901 8.34903,0 -0.18224,72.41994 6.30339,6.23882 2.14498,-2.1139 -5.28288,-5.32766 0.10939,-71.2172 53.85296,0 0,2.10847 20.14627,0 0,2.1101 3.66334,0 0,-54.83658 -3.66334,0 0,2.1101 -20.14627,0 0,29.52513 -65.37981,0 z"
       id="polygon105"
       inkscape:connector-curvature="0"
       sodipodi:nodetypes="ccccccccccccccccccc" />
    <path
       style="color:#000000;display:inline;overflow:visible;visibility:visible;fill:#cccccc;fill-opacity:1;fill-rule:nonzero;stroke:#000000;stroke-width:1.24999988;stroke-linecap:square;stroke-linejoin:miter;stroke-miterlimit:100;stroke-dasharray:none;stroke-dashoffset:0;stroke-opacity:1;marker:none;enable-background:accumulate"
       d="m 154.43671,973.50413 0,-12.6541 1.83238,0 0,-23.19971 43.95445,0 0,23.19971 1.83237,0 0,12.6541 -47.6192,0 z"
       id="polygon107"
       inkscape:connector-curvature="0" />
    <path
       id="polygon109"
       style="color:#000000;display:inline;overflow:visible;visibility:visible;fill:#cccccc;fill-opacity:1;fill-rule:nonzero;stroke:#000000;stroke-width:1.24999988;stroke-linecap:square;stroke-linejoin:miter;stroke-miterlimit:100;stroke-dasharray:none;stroke-dashoffset:0;stroke-opacity:1;marker:none;enable-background:accumulate"
       d="m 284.47192,937.65032 0,23.19971 1.83097,0 0,12.6541 -47.6178,0 0,-12.6541 1.83238,0 0,-23.19971 20.14485,2e-5 0,-56.09288 3.66334,0 0,56.09288 z"
       inkscape:connector-curvature="0"
       sodipodi:nodetypes="ccccccccccccc" />
    <path
       style="color:#000000;display:inline;overflow:visible;visibility:visible;fill:#cccccc;fill-opacity:1;fill-rule:nonzero;stroke:#000000;stroke-width:1.24999988;stroke-linecap:square;stroke-linejoin:miter;stroke-miterlimit:100;stroke-dasharray:none;stroke-dashoffset:0;stroke-opacity:1;marker:none;enable-background:accumulate"
       d="m 207.55022,570.56217 -22.77363,-0.003 -6.98639,-6.98229 2.20862,-2.07539 6.48498,6.51138 21.06644,0.12886 0,-16.44827 5.49431,0 0,-31.63686 20.14626,0 0,-2.10847 3.66334,0 0,23.19972 64.10213,0 0,6.32704 -1.83238,0 0,23.19972 z"
       id="polygon113"
       inkscape:connector-curvature="0"
       sodipodi:nodetypes="cccccccccccccccccc" />
    <path
       id="rect117"
       style="color:#000000;clip-rule:nonzero;display:inline;overflow:visible;visibility:visible;opacity:1;isolation:auto;mix-blend-mode:normal;color-interpolation:sRGB;color-interpolation-filters:linearRGB;solid-color:#000000;solid-opacity:1;fill:#cccccc;fill-opacity:1;fill-rule:nonzero;stroke:#000000;stroke-width:1.24999988;stroke-linecap:square;stroke-linejoin:miter;stroke-miterlimit:100;stroke-dasharray:none;stroke-dashoffset:0;stroke-opacity:1;marker:none;color-rendering:auto;image-rendering:auto;shape-rendering:auto;text-rendering:auto;enable-background:accumulate"
       d="m 493.2598,570.64709 0,122.35358 -64.10213,10e-6 0,-61.16366 -5.28707,0 0,-10.42373 -3.53533,0 0,10.42373 -5.82813,0 0,61.16366 -86.07935,0 0,33.7437 109.88753,0 0,-18.98278 -1.83238,0 -10e-6,-8.43386 45.78683,0 10e-6,8.43386 -1.82954,0 0,18.98278 51.28114,0 0,-29.52781 18.31387,10e-4 0,-64.53447 -7.32669,0 0,5.48092 3.66477,0 0,54.83661 -36.6306,0 -0.0453,-54.7755 12.57973,-0.0611 0,-5.72948 -23.52301,0.0178 0,-47.01478 10.98862,0 0,-14.76257 3.83239,0 0,-6.32704 -5.66193,0 0,-56.9467 31.13629,0 0,6.32869 10.98577,0 0,4.21857 3.66193,0 0,-88.0416 -3.66193,0 0,64.84189 -10.98577,0 0,6.32541 -31.13629,0 0,-56.94342 3.66193,0 0,-6.32868 -3.66193,0 0,-12.65246 -3.67983,-3.44715 -2.29811,3.44715 -3.53553,-5.12652 -1.50261,5.12652 -1.94453,-3.00521 -1.69277,3.00521 0,12.65246 -64.10213,0 0,-12.65246 -17.16173,0 0,-4.21858 -2.20554,-2.78423 -1.43395,3.31436 -1.43868,-2.73984 -1.56828,2.20971 0,106.42731 3.66335,0 0,-60.02787 20.14483,0 0,-16.87431 64.10213,0 0,23.20135 7.32669,0 0,48.5079 -7.32669,0 0,25.30982 -9.15765,0 -1e-5,18.98115 -45.78683,0 10e-6,-18.98115 -9.15765,0 0,-21.09124 -18.31246,0 0,-4.21858 -5.49572,0 0,18.98278 -60.43737,0 0,6.32704 1.82955,0 0,23.19972 67.76547,0 0,14.76257 5.82813,0 0,7.93767 3.53533,0 0,-7.93767 5.28707,0 0,-14.76257 z"
       inkscape:connector-curvature="0"
       sodipodi:nodetypes="ccccccccccccccccccccccccccccccccccccccccccccccccccccccccccccccccccccccccccccccccccccccccccccccccccccccccc" />
    <path
       style="display:inline;overflow:visible;fill:none;stroke:#000000;stroke-width:1.24999988;stroke-linecap:square;stroke-linejoin:miter;stroke-miterlimit:100;stroke-dasharray:2.49999992, 2.49999992;stroke-dashoffset:0;stroke-opacity:1"
       d="m 26.233866,935.54181 47.619222,0 0,2.10847 -47.619222,0 z"
       id="rect123"
       inkscape:connector-curvature="0" />
    <path
       style="display:inline;overflow:visible;fill:none;stroke:#000000;stroke-width:1.24999988;stroke-linecap:square;stroke-linejoin:miter;stroke-miterlimit:100;stroke-dasharray:none;stroke-opacity:1"
       d="m 261.49013,880.37996 -23.62701,0 0.84666,-7.21909 2.38716,-6.49403 3.69994,-5.51024 4.78499,-4.26248 5.64084,-2.74718 6.26742,-0.97499 0,27.20801 z"
       id="polygon151"
       inkscape:connector-curvature="0" />
    <path
       style="display:inline;overflow:visible;fill:#ffffff;stroke:#000000;stroke-width:1.24999988;stroke-linecap:square;stroke-linejoin:miter;stroke-miterlimit:100;stroke-dasharray:none;stroke-opacity:1"
       d="m 233.1715,378.33169 3.66334,0 0,40.4511 -3.66334,0 z"
       id="rect3617"
       inkscape:connector-curvature="0" />
    <path
       id="rect61-5"
       style="color:#000000;display:inline;overflow:visible;visibility:visible;fill:#cccccc;fill-opacity:1;fill-rule:nonzero;stroke:#000000;stroke-width:1.24999988;stroke-linecap:square;stroke-linejoin:miter;stroke-miterlimit:100;stroke-dasharray:none;stroke-dashoffset:0;stroke-opacity:1;marker:none;enable-background:accumulate"
       d="m 103.15557,612.85425 0,-42.17923 9.15765,0 0,-18.98114 -9.15765,0 0,-14.76584 -12.819562,0 0,-48.5079 12.819562,0 0,-14.76256 8.36609,0 0,-4.21857 8.07313,0 -0.0183,-18.98278 -34.736282,0 0,18.00737 -76.7728224,-0.0784 0,-15.91057 -11.745494,0 0,-80.59669 13.066137,0 0,-15.02923 74.2314494,0 0,15.02923 34.618382,0 0,-15.02923 30.39389,0 0,-7.48445 -152.3098584,0 0,-29.31887 -1.226356,5.26912 -1.84357,5.26913 -1.82136,-6.31783 -1.8213706,-6.31785 -1.843582,4.22043 -1.84357,4.22041 -1.82136,-138.64844 -1.821371,-3.1717 0,320.34693 3.220909,-5.80136 2.495225,8.0984 2.9286136,-9.21891 3.318794,8.30664 2.387611,-5.66779 -0.308613,-25.73944 88.5183464,0.051 0,17.69627 1.83238,-3e-5 0,42.18086 -1.83238,-10e-4 0,54.83495 -1.83096,0 0,6.32868 1.83096,0 0,16.87104 12.8668,-0.034 0,80.141 -14.69776,0.0394 0,33.74371 195.966902,0 0,-33.74371 -175.77484,-0.0394 0,-80.141"
       inkscape:connector-curvature="0"
       sodipodi:nodetypes="ccccccccccccccccccccccccccccccccccccccccccccccccccccccccccccccc" />
    <path
       style="display:inline;overflow:visible;fill:none;stroke:#000000;stroke-width:1.24999976;stroke-linecap:square;stroke-linejoin:miter;stroke-miterlimit:100;stroke-dasharray:none;stroke-opacity:1"
       d="m 277.11288,728.14791 25.41272,0 0,1.84696 -25.41272,0 z"
       id="rect25-8"
       inkscape:connector-curvature="0" />
    <path
       style="display:inline;overflow:visible;fill:none;stroke:#000000;stroke-width:1.24999964;stroke-linecap:square;stroke-linejoin:miter;stroke-miterlimit:100;stroke-dasharray:none;stroke-opacity:1"
       d="m 304.20051,728.13207 25.41271,0 0,1.84697 -25.41271,0 z"
       id="rect25-8-3"
       inkscape:connector-curvature="0" />
    <path
       style="display:inline;overflow:visible;fill:none;stroke:#000000;stroke-width:1.24999988;stroke-linecap:square;stroke-linejoin:miter;stroke-miterlimit:100;stroke-dasharray:1.24999996, 2.49999992;stroke-dashoffset:0;stroke-opacity:1"
       d="m 282.14826,730.00678 -25.41272,0 0,-1.84696 25.41272,0"
       id="rect25-8-8"
       inkscape:connector-curvature="0"
       sodipodi:nodetypes="cccc" />
    <path
       style="display:inline;overflow:visible;fill:none;stroke:#000000;stroke-width:1.24999976;stroke-linecap:square;stroke-linejoin:miter;stroke-miterlimit:100;stroke-dasharray:1.24999991, 2.49999984;stroke-dashoffset:0;stroke-opacity:1"
       d="m 325.71725,730.00677 25.41272,0 0,-1.84696 -25.41272,0"
       id="path100"
       inkscape:connector-curvature="0"
       sodipodi:nodetypes="cccc" />
    <path
       inkscape:connector-curvature="0"
       style="display:inline;overflow:visible;fill:#ffffff;stroke:#000000;stroke-width:1;stroke-linecap:square;stroke-linejoin:miter;stroke-miterlimit:100;stroke-dasharray:none;stroke-opacity:1"
       d="m 674.94195,764.69509 12.61019,0 0,2.37965 -12.61019,0 z"
       id="rect61-5-0-1" />
    <path
       style="display:inline;overflow:visible;fill:#cccccc;fill-opacity:1;fill-rule:evenodd;stroke:#000000;stroke-width:1.24999988;stroke-linecap:butt;stroke-linejoin:miter;stroke-miterlimit:4;stroke-dasharray:none;stroke-opacity:1"
       d="m 230.48042,204.72526 6.83965,0 0,-15.55636 -1.00799,-5.44974 -2.65529,3.85875 -1.9375,-3.9194 -1.23879,3.74263 z"
       id="path5016"
       inkscape:connector-curvature="0"
       sodipodi:nodetypes="cccccccc" />
    <path
       style="display:inline;overflow:visible;fill:#cccccc;fill-opacity:1;fill-rule:evenodd;stroke:#000000;stroke-width:1.24999988;stroke-linecap:butt;stroke-linejoin:miter;stroke-miterlimit:4;stroke-dasharray:none;stroke-opacity:1"
       d="m 237.39067,279.57643 -6.83965,0 0,-32.61545 6.83158,0 z"
       id="path4984"
       inkscape:connector-curvature="0" />
    <path
       style="display:inline;overflow:visible;fill:#cccccc;fill-opacity:1;fill-rule:evenodd;stroke:#000000;stroke-width:1.24999988;stroke-linecap:butt;stroke-linejoin:miter;stroke-miterlimit:4;stroke-dasharray:none;stroke-opacity:1"
       d="m 405.73452,204.96414 6.29767,-0.17857 0,-12.31572 495.16372,-3.24062 -0.0224,-6.7864 -501.43895,0.27092 z"
       id="path5016-8"
       inkscape:connector-curvature="0"
       sodipodi:nodetypes="ccccccc" />
  </g>
  <g
     inkscape:groupmode="layer"
     id="layer2"
     inkscape:label="Outline"
     transform="translate(21.726053,-178.81889)">
    <path
       style="fill:#666666;fill-opacity:1;fill-rule:evenodd;stroke:none;stroke-width:1px;stroke-linecap:butt;stroke-linejoin:miter;stroke-opacity:1"
       d="m -18.182746,182.3622 255.573406,0 0,357.85267 167.95883,0 0,-109.63838 148.34766,0 0,119.48736 109.51713,0 0,41.16371 243.95991,0 0,382.34275 -925.356936,0 0,-382.34275 103.03556,0 0,-115.66246 -88.3883479,0 0,115.66246 -14.6472121,0 0,-408.86536"
       id="path5678"
       inkscape:connector-curvature="0" />
    <path
       style="fill:#dddddd;fill-opacity:1;fill-rule:evenodd;stroke:none;stroke-width:1px;stroke-linecap:butt;stroke-linejoin:miter;stroke-opacity:1"
       d="m 405.34949,430.57649 257.86479,0 0,160.65107 243.95991,0 0,-408.86536 -501.8247,0 z"
       id="path5676"
       inkscape:connector-curvature="0" />
    <path
       style="fill:none;fill-rule:evenodd;stroke:#000000;stroke-width:7.08661413;stroke-linecap:butt;stroke-linejoin:miter;stroke-miterlimit:4;stroke-dasharray:none;stroke-opacity:1"
       d="m -18.182746,182.3622 0,791.20811 925.356936,0 0,-791.20811 z"
       id="path5668"
       inkscape:connector-curvature="0" />
    <path
       style="fill:none;fill-rule:evenodd;stroke:#000000;stroke-width:3.54330751;stroke-linecap:butt;stroke-linejoin:miter;stroke-opacity:1;stroke-miterlimit:4;stroke-dasharray:none"
       d="m 237.39066,182.3622 0,357.85267 167.95883,0 0,-357.85267 z"
       id="path5670"
       inkscape:connector-curvature="0" />
    <path
       style="fill:none;fill-rule:evenodd;stroke:#000000;stroke-width:3.54330751;stroke-linecap:butt;stroke-linejoin:miter;stroke-opacity:1;stroke-miterlimit:4;stroke-dasharray:none"
       d="m -3.5355339,475.5651 0,115.66246 88.3883479,0 0,-115.66246 z"
       id="path5674"
       inkscape:connector-curvature="0" />
    <path
       style="fill:none;fill-rule:evenodd;stroke:#000000;stroke-width:3.54330751;stroke-linecap:butt;stroke-linejoin:miter;stroke-opacity:1;stroke-miterlimit:4;stroke-dasharray:none"
       d="m 553.69715,430.57649 0,119.48736 109.51713,0 0,-119.48736 z"
       id="path5672"
       inkscape:connector-curvature="0" />
    <path
       style="fill:none;fill-rule:evenodd;stroke:#aaaaaa;stroke-width:3.54330707;stroke-linecap:butt;stroke-linejoin:miter;stroke-miterlimit:4;stroke-dasharray:none;stroke-opacity:1"
       d="m 968.127,224.3622 0,811.208 -946.309746,0"
       id="path5680"
       inkscape:connector-curvature="0" />
    <text
       xml:space="preserve"
       style="font-style:normal;font-weight:normal;font-size:35px;line-height:125%;font-family:Sans;letter-spacing:0px;word-spacing:0px;fill:#000000;fill-opacity:1;stroke:none;stroke-width:1px;stroke-linecap:butt;stroke-linejoin:miter;stroke-opacity:1"
       x="367.85501"
       y="1071.9336"
       id="text5682"
       sodipodi:linespacing="125%"><tspan
         sodipodi:role="line"
         id="tspan5684"
         x="367.85501"
         y="1071.9336">Rathausstraße</tspan></text>
    <text
       xml:space="preserve"
       style="font-style:normal;font-weight:normal;font-size:11.25px;line-height:125%;font-family:Sans;letter-spacing:0px;word-spacing:0px;fill:#000000;fill-opacity:1;stroke:none;stroke-width:1px;stroke-linecap:butt;stroke-linejoin:miter;stroke-opacity:1"
       x="-748.41309"
       y="1004.4905"
       id="text5686"
       sodipodi:linespacing="125%"
       transform="matrix(0,-1,1,0,0,0)"><tspan
         sodipodi:role="line"
         id="tspan5688"
         x="-748.41309"
         y="1004.4905"
         style="font-size:35px">Stadiongasse</tspan></text>
  </g>
</svg>
