<?xml version="1.0" encoding="UTF-8" standalone="no"?>
<!-- Created with Inkscape (http://www.inkscape.org/) -->
<svg xmlns:dc="http://purl.org/dc/elements/1.1/" xmlns:cc="http://creativecommons.org/ns#" xmlns:rdf="http://www.w3.org/1999/02/22-rdf-syntax-ns#" xmlns:svg="http://www.w3.org/2000/svg" xmlns="http://www.w3.org/2000/svg" xmlns:sodipodi="http://sodipodi.sourceforge.net/DTD/sodipodi-0.dtd" xmlns:inkscape="http://www.inkscape.org/namespaces/inkscape" width="177.60001" height="177.60001" id="svg18718" sodipodi:version="0.32" inkscape:version="0.46" version="1.0" sodipodi:docname="F005.svg" inkscape:output_extension="org.inkscape.output.svg.inkscape">
  <defs id="defs18720">
    <inkscape:perspective sodipodi:type="inkscape:persp3d" inkscape:vp_x="0 : 526.18109 : 1" inkscape:vp_y="0 : 1000 : 0" inkscape:vp_z="744.09448 : 526.18109 : 1" inkscape:persp3d-origin="372.04724 : 350.78739 : 1" id="perspective18726"/>
  </defs>
  <sodipodi:namedview id="base" pagecolor="#ffffff" bordercolor="#666666" borderopacity="1.0" gridtolerance="10000" guidetolerance="10" objecttolerance="10" inkscape:pageopacity="0.0" inkscape:pageshadow="2" inkscape:zoom="0.35" inkscape:cx="375" inkscape:cy="291.42857" inkscape:document-units="px" inkscape:current-layer="layer1" showgrid="false" inkscape:window-width="640" inkscape:window-height="687" inkscape:window-x="0" inkscape:window-y="-4"/>
  <metadata id="metadata18723">
    <rdf:RDF>
      <cc:Work rdf:about="">
        <dc:format>image/svg+xml</dc:format>
        <dc:type rdf:resource="http://purl.org/dc/dcmitype/StillImage"/>
      </cc:Work>
    </rdf:RDF>
  </metadata>
  <g inkscape:label="Layer 1" inkscape:groupmode="layer" id="layer1" transform="translate(-12355.794,166.05919)">
    <path d="M 12533.094,11.240811 L 12356.094,11.240811 L 12356.094,-165.75919 L 12533.094,-165.75919 L 12533.094,11.240811 z" style="fill:none;stroke:#1f1a17;stroke-width:0.59999996;stroke-linecap:round;stroke-linejoin:round;stroke-miterlimit:10;stroke-dasharray:none;stroke-opacity:1" id="path45689"/>
    <path d="M 12360.294,7.0408114 L 12528.894,7.0408114 L 12528.894,-161.55919 L 12360.294,-161.55919 L 12360.294,7.0408114 z" style="fill:#dc2b19;fill-opacity:1;fill-rule:nonzero;stroke:none" id="path45691"/>
    <path d="M 12408.594,-20.259189 L 12446.694,-20.259189 L 12446.694,-17.259189 L 12408.594,-17.259189 L 12408.594,-20.259189 z M 12413.994,-25.959189 L 12410.994,-25.959189 L 12410.994,-90.759189 L 12413.994,-90.759189 L 12413.994,-25.959189 z M 12419.094,-38.859189 L 12416.094,-38.859189 L 12416.094,-90.759189 L 12419.094,-90.759189 L 12419.094,-38.859189 z M 12446.694,-91.059189 L 12446.694,-46.959189 L 12428.694,-35.259189 L 12436.194,-23.859189 L 12446.694,-30.759189 L 12446.694,-22.359189 L 12408.594,-22.359189 L 12408.594,-89.859189 L 12408.894,-92.559189 L 12409.794,-95.259189 L 12410.094,-96.459189 L 12410.994,-97.659189 L 12411.894,-99.159189 L 12412.794,-100.35919 L 12413.994,-101.25919 L 12415.494,-102.45919 L 12416.994,-103.35919 L 12418.794,-103.95919 L 12420.594,-104.55919 L 12422.694,-105.15919 L 12425.094,-105.45919 L 12427.794,-105.45919 L 12431.994,-105.15919 L 12435.594,-104.25919 L 12437.394,-103.95919 L 12438.594,-103.05919 L 12440.094,-102.45919 L 12441.294,-101.55919 L 12443.094,-99.459189 L 12444.894,-97.059189 L 12446.094,-94.059189 L 12446.694,-91.059189 z M 12488.394,-120.75919 L 12489.294,-118.65919 L 12490.194,-116.25919 L 12491.094,-113.85919 L 12491.694,-111.45919 L 12492.294,-108.75919 L 12492.594,-106.35919 L 12492.894,-103.65919 L 12493.194,-100.95919 L 12492.594,-93.759189 L 12492.294,-90.159189 L 12491.694,-86.559189 L 12490.794,-82.659189 L 12489.894,-79.059189 L 12488.694,-75.459189 L 12487.194,-71.859189 L 12485.694,-68.559189 L 12483.894,-64.959189 L 12481.794,-61.659189 L 12479.694,-58.659189 L 12477.294,-55.659189 L 12474.594,-52.659189 L 12471.894,-49.959189 L 12468.894,-47.559189 L 12452.994,-35.559189 L 12452.994,-9.1591886 L 12402.294,-9.1591886 L 12402.294,-90.759189 L 12402.594,-91.659189 L 12402.594,-93.459189 L 12402.894,-94.059189 L 12403.194,-94.959189 L 12403.194,-95.859189 L 12403.494,-96.759189 L 12395.994,-100.35919 L 12398.994,-106.05919 L 12406.494,-102.15919 L 12408.294,-104.25919 L 12410.094,-106.05919 L 12412.194,-107.85919 L 12414.594,-109.35919 L 12416.994,-110.25919 L 12419.694,-111.15919 L 12422.694,-111.45919 L 12425.694,-111.75919 L 12425.694,-116.85919 L 12423.894,-117.15919 L 12422.094,-117.15919 L 12420.594,-117.45919 L 12419.094,-117.75919 L 12418.194,-118.05919 L 12417.294,-118.65919 L 12416.394,-118.95919 L 12415.494,-119.55919 L 12414.294,-120.75919 L 12412.794,-122.25919 L 12411.894,-124.05919 L 12410.694,-128.25919 L 12410.694,-130.35919 L 12411.294,-132.45919 L 12411.894,-134.55919 L 12412.794,-136.05919 L 12413.694,-137.25919 L 12414.894,-138.45919 L 12416.394,-139.35919 L 12419.694,-141.45919 L 12423.894,-142.95919 L 12428.094,-144.15919 L 12437.694,-145.35919 L 12448.794,-145.35919 L 12454.194,-144.45919 L 12455.994,-144.15919 L 12457.794,-143.85919 L 12461.994,-142.65919 L 12466.194,-140.85919 L 12470.394,-138.75919 L 12474.594,-136.05919 L 12478.494,-133.05919 L 12482.094,-129.45919 L 12483.894,-127.35919 L 12485.394,-125.25919 L 12486.894,-123.15919 L 12488.394,-120.75919 z M 12478.194,-122.25919 L 12480.294,-118.65919 L 12482.094,-114.75919 L 12483.294,-110.85919 L 12483.894,-106.65919 L 12484.194,-102.15919 L 12483.894,-97.959189 L 12483.294,-93.459189 L 12482.094,-89.259189 L 12480.894,-84.759189 L 12479.094,-80.559189 L 12477.294,-76.659189 L 12474.894,-72.759189 L 12472.494,-69.159189 L 12470.094,-65.859189 L 12467.094,-62.859189 L 12464.394,-60.159189 L 12452.994,-50.859189 L 12452.994,-91.359189 L 12452.694,-94.359189 L 12451.494,-97.659189 L 12449.694,-101.25919 L 12448.494,-102.75919 L 12447.294,-104.55919 L 12445.794,-106.05919 L 12443.994,-107.25919 L 12442.194,-108.45919 L 12440.094,-109.65919 L 12437.994,-110.55919 L 12435.294,-111.15919 L 12432.594,-111.45919 L 12429.894,-111.75919 L 12429.894,-126.15919 L 12437.094,-126.15919 L 12437.094,-129.75919 L 12419.094,-129.75919 L 12419.094,-126.15919 L 12425.994,-126.15919 L 12425.994,-120.45919 L 12422.694,-120.45919 L 12420.894,-121.05919 L 12419.694,-121.65919 L 12418.494,-122.25919 L 12417.294,-123.15919 L 12416.394,-124.35919 L 12415.794,-125.85919 L 12415.194,-127.35919 L 12414.894,-129.15919 L 12415.194,-130.65919 L 12415.794,-132.15919 L 12416.394,-133.65919 L 12417.294,-134.85919 L 12418.794,-136.05919 L 12420.294,-136.95919 L 12423.894,-138.15919 L 12427.794,-139.35919 L 12431.694,-140.25919 L 12435.594,-140.85919 L 12443.694,-140.85919 L 12447.594,-140.55919 L 12451.494,-139.65919 L 12455.394,-138.75919 L 12459.294,-137.25919 L 12462.894,-135.75919 L 12466.494,-133.65919 L 12469.794,-131.25919 L 12472.794,-128.55919 L 12475.494,-125.55919 L 12478.194,-122.25919" style="fill:#ffffff;fill-opacity:1;fill-rule:evenodd;stroke:none" id="path45693"/>
  </g>
</svg>