<?xml version="1.0" encoding="UTF-8" standalone="no"?>
<!-- Created with Inkscape (http://www.inkscape.org/) -->
<svg xmlns:dc="http://purl.org/dc/elements/1.1/" xmlns:cc="http://creativecommons.org/ns#" xmlns:rdf="http://www.w3.org/1999/02/22-rdf-syntax-ns#" xmlns:svg="http://www.w3.org/2000/svg" xmlns="http://www.w3.org/2000/svg" xmlns:sodipodi="http://sodipodi.sourceforge.net/DTD/sodipodi-0.dtd" xmlns:inkscape="http://www.inkscape.org/namespaces/inkscape" width="177.60001" height="177.60001" id="svg18718" sodipodi:version="0.32" inkscape:version="0.46" version="1.0" sodipodi:docname="F007.svg" inkscape:output_extension="org.inkscape.output.svg.inkscape">
  <defs id="defs18720">
    <inkscape:perspective sodipodi:type="inkscape:persp3d" inkscape:vp_x="0 : 526.18109 : 1" inkscape:vp_y="0 : 1000 : 0" inkscape:vp_z="744.09448 : 526.18109 : 1" inkscape:persp3d-origin="372.04724 : 350.78739 : 1" id="perspective18726"/>
  </defs>
  <sodipodi:namedview id="base" pagecolor="#ffffff" bordercolor="#666666" borderopacity="1.0" gridtolerance="10000" guidetolerance="10" objecttolerance="10" inkscape:pageopacity="0.0" inkscape:pageshadow="2" inkscape:zoom="0.35" inkscape:cx="375" inkscape:cy="291.42857" inkscape:document-units="px" inkscape:current-layer="layer1" showgrid="false" inkscape:window-width="640" inkscape:window-height="687" inkscape:window-x="0" inkscape:window-y="-4"/>
  <metadata id="metadata18723">
    <rdf:RDF>
      <cc:Work rdf:about="">
        <dc:format>image/svg+xml</dc:format>
        <dc:type rdf:resource="http://purl.org/dc/dcmitype/StillImage"/>
      </cc:Work>
    </rdf:RDF>
  </metadata>
  <g inkscape:label="Layer 1" inkscape:groupmode="layer" id="layer1" transform="translate(-13746.766,431.31632)">
    <path d="M 13924.066,-254.01632 L 13747.066,-254.01632 L 13747.066,-431.01632 L 13924.066,-431.01632 L 13924.066,-254.01632 z" style="fill:none;stroke:#1f1a17;stroke-width:0.59999996;stroke-linecap:round;stroke-linejoin:round;stroke-miterlimit:10;stroke-dasharray:none;stroke-opacity:1" id="path47237"/>
    <path d="M 13751.266,-258.21632 L 13919.866,-258.21632 L 13919.866,-426.81632 L 13751.266,-426.81632 L 13751.266,-258.21632 z" style="fill:#dc2b19;fill-opacity:1;fill-rule:nonzero;stroke:none" id="path47239"/>
    <path d="M 13901.866,-309.21632 L 13769.266,-309.21632 L 13769.266,-312.81632 L 13769.866,-319.41632 L 13770.466,-322.71632 L 13771.366,-325.71632 L 13771.966,-329.01632 L 13773.166,-332.01632 L 13774.366,-335.01632 L 13775.566,-338.01632 L 13777.066,-341.01632 L 13778.866,-343.71632 L 13780.366,-346.41632 L 13782.466,-349.11632 L 13784.266,-351.51632 L 13786.366,-353.91632 L 13788.766,-356.31632 L 13790.866,-358.41632 L 13793.266,-360.51632 L 13795.966,-362.61632 L 13798.366,-364.41632 L 13801.066,-366.21632 L 13804.066,-367.71632 L 13806.766,-369.21632 L 13809.766,-370.41632 L 13812.766,-371.61632 L 13815.766,-372.81632 L 13819.066,-373.71632 L 13822.066,-374.31632 L 13825.366,-374.91632 L 13828.666,-375.51632 L 13832.266,-375.51632 L 13835.566,-375.81632 L 13838.866,-375.51632 L 13842.466,-375.51632 L 13845.766,-374.91632 L 13849.066,-374.31632 L 13852.066,-373.71632 L 13855.366,-372.81632 L 13858.366,-371.61632 L 13864.366,-369.21632 L 13867.066,-367.71632 L 13870.066,-366.21632 L 13872.766,-364.41632 L 13875.166,-362.61632 L 13877.866,-360.51632 L 13880.266,-358.41632 L 13882.366,-356.31632 L 13884.766,-353.91632 L 13886.866,-351.51632 L 13888.666,-349.11632 L 13890.766,-346.41632 L 13892.266,-343.71632 L 13894.066,-341.01632 L 13895.566,-338.01632 L 13896.766,-335.01632 L 13897.966,-332.01632 L 13898.866,-329.01632 L 13899.766,-325.71632 L 13900.666,-322.71632 L 13901.266,-319.41632 L 13901.566,-316.11632 L 13901.866,-312.81632 L 13901.866,-309.21632" style="fill:#ffffff;fill-opacity:1;fill-rule:evenodd;stroke:none" id="path47241"/>
  </g>
</svg>